<?xml version="1.0" encoding="utf-8"?>
<!-- Generator: Adobe Illustrator 21.0.0, SVG Export Plug-In . SVG Version: 6.00 Build 0)  -->
<svg version="1.1" id="Layer_1" xmlns="http://www.w3.org/2000/svg" xmlns:xlink="http://www.w3.org/1999/xlink" x="0px" y="0px"
	 viewBox="0 0 394 394" style="enable-background:new 0 0 394 394;" xml:space="preserve">
<style type="text/css">
	.st0{fill:#FFFFFF;}
</style>
<path class="st0" d="M366,230.5c0-3.8-3-6.8-6.8-6.8s-6.8,3.1-6.8,6.8c0,45.3-31.2,83.7-75,93.2v-20.8c35.2-9.1,61.3-41.2,61.3-79.2
	V121.4c0-45.1-36.7-81.8-81.8-81.8c-45.1,0-81.8,36.7-81.8,81.8v102.2c0,38,26.1,70.1,61.3,79.2v20.8c-43.7-9.5-75-47.9-75-93.2
	c0-3.8-3-6.8-6.8-6.8s-6.8,3-6.8,6.8c0,52.8,37.1,97.4,88.6,107.1v15.6h-27.3c-18.8,0-34.1,15.3-34.1,34.1c0,3.8,3,6.8,6.8,6.8H332
	c3.8,0,6.8-3,6.8-6.8c0-18.8-15.3-34.1-34.1-34.1h-27.3v-15.6C329,327.8,366,283.3,366,230.5z M189.2,230.5h33.7
	c3.8,0,6.8-3.1,6.8-6.8c0-3.8-3-6.8-6.8-6.8h-34.1v-20.4h34.1c3.8,0,6.8-3.1,6.8-6.8c0-3.8-3-6.8-6.8-6.8h-34.1v-20.4h34.1
	c3.8,0,6.8-3.1,6.8-6.8c0-3.8-3-6.8-6.8-6.8h-34.1v-20.4h34.1c3.8,0,6.8-3,6.8-6.8c0-3.8-3-6.8-6.8-6.8h-33.7
	c3.4-34.4,32.5-61.3,67.8-61.3s64.4,26.9,67.8,61.3h-33.7c-3.8,0-6.8,3.1-6.8,6.8c0,3.8,3,6.8,6.8,6.8h34.1v20.4h-34.1
	c-3.8,0-6.8,3.1-6.8,6.8c0,3.8,3,6.8,6.8,6.8h34.1v20.4h-34.1c-3.8,0-6.8,3.1-6.8,6.8c0,3.8,3,6.8,6.8,6.8h34.1v20.4h-34.1
	c-3.8,0-6.8,3-6.8,6.8c0,3.8,3,6.8,6.8,6.8h33.7c-3,30.3-26,54.8-55.5,60.2h0c-4,0.7-8.1,1.1-12.3,1.1
	C221.7,291.8,192.6,264.8,189.2,230.5z M304.7,366.7c8.9,0,16.5,5.7,19.3,13.6H190c2.8-7.9,10.4-13.6,19.3-13.6h34.1
	c3.8,0,6.8-3,6.8-6.8v-54.8c2.2,0.2,4.5,0.3,6.8,0.3s4.6-0.1,6.8-0.3v54.8c0,3.8,3,6.8,6.8,6.8H304.7z"/>
<path class="st0" d="M322.2,40.5c5.9,1.7,10.9,5.1,14.5,9.8c3.6,4.8,5.6,10.5,5.7,16.7c0.1,3.7,3.1,6.7,6.8,6.7h0.1
	c3.8-0.1,6.8-3.2,6.7-6.9c-0.1-9.1-3.1-17.7-8.5-24.8c-5.4-7-12.8-12.1-21.4-14.6c-3.6-1.1-7.4,1-8.5,4.6
	C316.6,35.6,318.6,39.4,322.2,40.5z"/>
<path class="st0" d="M369.2,25.4c-9.6-12.5-23.3-21.5-38.7-25.2c-3.7-0.9-7.3,1.4-8.2,5c-0.9,3.7,1.4,7.3,5,8.2
	c12.5,3,23.3,10,31.1,20.3c7.3,9.6,11.3,21.1,11.4,33.3c0,3.7,3.1,6.8,6.8,6.8h0.1c3.8,0,6.8-3.1,6.8-6.9
	C383.3,51.7,378.4,37.4,369.2,25.4z"/>
<path class="st0" d="M118.2,7.6L98.2,27.7c-2.7,2.7-2.7,7,0,9.6c1.3,1.3,3.1,2,4.8,2s3.5-0.7,4.8-2l20.1-20.1c2.7-2.7,2.7-7,0-9.6
	C125.2,4.9,120.9,4.9,118.2,7.6z"/>
<path class="st0" d="M78.1,47.7L58,67.8c-2.7,2.7-2.7,7,0,9.6c1.3,1.3,3.1,2,4.8,2s3.5-0.7,4.8-2l20.1-20.1c2.7-2.7,2.7-7,0-9.6
	C85,45.1,80.7,45.1,78.1,47.7z"/>
<path class="st0" d="M67.6,7.6c-2.7-2.7-7-2.7-9.6,0c-2.7,2.7-2.7,7,0,9.6l20.1,20.1c1.3,1.3,3.1,2,4.8,2s3.5-0.7,4.8-2
	c2.7-2.7,2.7-7,0-9.6L67.6,7.6z"/>
<path class="st0" d="M107.8,47.7c-2.7-2.7-7-2.7-9.6,0c-2.7,2.7-2.7,7,0,9.6l20.1,20.1c1.3,1.3,3.1,2,4.8,2s3.5-0.7,4.8-2
	c2.7-2.7,2.7-7,0-9.6L107.8,47.7z"/>
<path class="st0" d="M38.9,203.2c-15,0-27.3,12.2-27.3,27.3c0,15,12.2,27.3,27.3,27.3c15,0,27.3-12.2,27.3-27.3
	C66.2,215.4,54,203.2,38.9,203.2z M38.9,244.1c-7.5,0-13.6-6.1-13.6-13.6c0-7.5,6.1-13.6,13.6-13.6c7.5,0,13.6,6.1,13.6,13.6
	C52.6,238,46.4,244.1,38.9,244.1z"/>
<path class="st0" d="M113.9,152.1c0,5.6-4.6,10.2-10.2,10.2s-10.2-4.6-10.2-10.2c0-5.6,4.6-10.2,10.2-10.2S113.9,146.4,113.9,152.1z
	"/>
</svg>
